<?xml version="1.0" encoding="UTF-8" standalone="no"?>
<!DOCTYPE svg PUBLIC "-//W3C//DTD SVG 1.1//EN"
 "http://www.w3.org/Graphics/SVG/1.1/DTD/svg11.dtd">
<!-- Generated by graphviz version 2.40.1 (20161225.0304)
 -->
<!-- Title: postgres Pages: 1 -->
<svg width="1308pt" height="736pt"
 viewBox="0.00 0.00 1308.00 736.00" xmlns="http://www.w3.org/2000/svg" xmlns:xlink="http://www.w3.org/1999/xlink">
<g id="graph0" class="graph" transform="scale(1 1) rotate(0) translate(4 732)">
<title>postgres</title>
<polygon fill="#ffffff" stroke="transparent" points="-4,4 -4,-732 1304,-732 1304,4 -4,4"/>
<!-- public.articles -->
<g id="node1" class="node">
<title>public.articles</title>
<polygon fill="#efefef" stroke="transparent" points="285,-282.5 285,-317.5 538,-317.5 538,-282.5 285,-282.5"/>
<polygon fill="none" stroke="#000000" points="285,-282.5 285,-317.5 538,-317.5 538,-282.5 285,-282.5"/>
<text text-anchor="start" x="308.3709" y="-295.3" font-family="Arial Bold" font-size="18.00" fill="#000000">public.articles</text>
<text text-anchor="start" x="417.3753" y="-295.3" font-family="Arial" font-size="14.00" fill="#000000"> </text>
<text text-anchor="start" x="421.2659" y="-295.3" font-family="Arial" font-size="14.00" fill="#666666">[BASE TABLE]</text>
<polygon fill="none" stroke="#000000" points="285,-252.5 285,-282.5 538,-282.5 538,-252.5 285,-252.5"/>
<text text-anchor="start" x="292" y="-263.9" font-family="Arial" font-size="14.00" fill="#000000">id </text>
<text text-anchor="start" x="306.7798" y="-263.9" font-family="Arial" font-size="14.00" fill="#666666">[uuid]</text>
<polygon fill="none" stroke="#000000" points="285,-222.5 285,-252.5 538,-252.5 538,-222.5 285,-222.5"/>
<text text-anchor="start" x="292" y="-233.9" font-family="Arial" font-size="14.00" fill="#000000">title </text>
<text text-anchor="start" x="317.6676" y="-233.9" font-family="Arial" font-size="14.00" fill="#666666">[varchar]</text>
<polygon fill="none" stroke="#000000" points="285,-192.5 285,-222.5 538,-222.5 538,-192.5 285,-192.5"/>
<text text-anchor="start" x="292" y="-203.9" font-family="Arial" font-size="14.00" fill="#000000">url </text>
<text text-anchor="start" x="311.4404" y="-203.9" font-family="Arial" font-size="14.00" fill="#666666">[varchar]</text>
<polygon fill="none" stroke="#000000" points="285,-162.5 285,-192.5 538,-192.5 538,-162.5 285,-162.5"/>
<text text-anchor="start" x="292" y="-173.9" font-family="Arial" font-size="14.00" fill="#000000">description </text>
<text text-anchor="start" x="363.568" y="-173.9" font-family="Arial" font-size="14.00" fill="#666666">[varchar]</text>
<polygon fill="none" stroke="#000000" points="285,-132.5 285,-162.5 538,-162.5 538,-132.5 285,-132.5"/>
<text text-anchor="start" x="292" y="-143.9" font-family="Arial" font-size="14.00" fill="#000000">thumbnail </text>
<text text-anchor="start" x="356.568" y="-143.9" font-family="Arial" font-size="14.00" fill="#666666">[varchar]</text>
<polygon fill="none" stroke="#000000" points="285,-102.5 285,-132.5 538,-132.5 538,-102.5 285,-102.5"/>
<text text-anchor="start" x="292" y="-113.9" font-family="Arial" font-size="14.00" fill="#000000">created_at </text>
<text text-anchor="start" x="362.028" y="-113.9" font-family="Arial" font-size="14.00" fill="#666666">[timestamp with time zone]</text>
<polygon fill="none" stroke="#000000" points="285,-72.5 285,-102.5 538,-102.5 538,-72.5 285,-72.5"/>
<text text-anchor="start" x="291.6915" y="-83.9" font-family="Arial" font-size="14.00" fill="#000000">updated_at </text>
<text text-anchor="start" x="365.6241" y="-83.9" font-family="Arial" font-size="14.00" fill="#666666">[timestamp with time zone]</text>
<polygon fill="none" stroke="#000000" points="285,-42.5 285,-72.5 538,-72.5 538,-42.5 285,-42.5"/>
<text text-anchor="start" x="292" y="-53.9" font-family="Arial" font-size="14.00" fill="#000000">deleted_at </text>
<text text-anchor="start" x="361.2566" y="-53.9" font-family="Arial" font-size="14.00" fill="#666666">[timestamp with time zone]</text>
</g>
<!-- public.read_articles -->
<g id="node2" class="node">
<title>public.read_articles</title>
<polygon fill="#efefef" stroke="transparent" points="96,-604.5 96,-639.5 362,-639.5 362,-604.5 96,-604.5"/>
<polygon fill="none" stroke="#000000" points="96,-604.5 96,-639.5 362,-639.5 362,-604.5 96,-604.5"/>
<text text-anchor="start" x="102.8624" y="-617.3" font-family="Arial Bold" font-size="18.00" fill="#000000">public.read_articles</text>
<text text-anchor="start" x="257.8838" y="-617.3" font-family="Arial" font-size="14.00" fill="#000000"> </text>
<text text-anchor="start" x="261.7744" y="-617.3" font-family="Arial" font-size="14.00" fill="#666666">[BASE TABLE]</text>
<polygon fill="none" stroke="#000000" points="96,-574.5 96,-604.5 362,-604.5 362,-574.5 96,-574.5"/>
<text text-anchor="start" x="103" y="-585.9" font-family="Arial" font-size="14.00" fill="#000000">id </text>
<text text-anchor="start" x="117.7798" y="-585.9" font-family="Arial" font-size="14.00" fill="#666666">[uuid]</text>
<polygon fill="none" stroke="#000000" points="96,-544.5 96,-574.5 362,-574.5 362,-544.5 96,-544.5"/>
<text text-anchor="start" x="103" y="-555.9" font-family="Arial" font-size="14.00" fill="#000000">user_id </text>
<text text-anchor="start" x="152.7882" y="-555.9" font-family="Arial" font-size="14.00" fill="#666666">[uuid]</text>
<polygon fill="none" stroke="#000000" points="96,-514.5 96,-544.5 362,-544.5 362,-514.5 96,-514.5"/>
<text text-anchor="start" x="103" y="-525.9" font-family="Arial" font-size="14.00" fill="#000000">read_at </text>
<text text-anchor="start" x="154.3548" y="-525.9" font-family="Arial" font-size="14.00" fill="#666666">[timestamp with time zone]</text>
<polygon fill="none" stroke="#000000" points="96,-484.5 96,-514.5 362,-514.5 362,-484.5 96,-484.5"/>
<text text-anchor="start" x="103" y="-495.9" font-family="Arial" font-size="14.00" fill="#000000">article_id </text>
<text text-anchor="start" x="162.892" y="-495.9" font-family="Arial" font-size="14.00" fill="#666666">[uuid]</text>
</g>
<!-- public.read_articles&#45;&gt;public.articles -->
<g id="edge1" class="edge">
<title>public.read_articles:article_id&#45;&gt;public.articles:id</title>
<path fill="none" stroke="#000000" d="M371.7325,-496.7298C382.2245,-488.1888 369.8507,-461.6532 362,-442 343.5742,-395.8735 303.4258,-407.1265 285,-361 269.5845,-322.4095 243.4444,-267.5 285,-267.5"/>
<polygon fill="#000000" stroke="#000000" points="371.618,-496.7623 360.768,-495.1719 366.809,-498.1312 362,-499.5 362,-499.5 362,-499.5 366.809,-498.1312 363.232,-503.8281 371.618,-496.7623 371.618,-496.7623"/>
<text text-anchor="start" x="6.8365" y="-509.5" font-family="Arial" font-size="10.00" fill="#000000">FOREIGN KEY (article_id) REFERENCES articles(id) ON DELETE CASCADE</text>
</g>
<!-- public.article_tags -->
<g id="node3" class="node">
<title>public.article_tags</title>
<polygon fill="#efefef" stroke="transparent" points="467,-619.5 467,-654.5 722,-654.5 722,-619.5 467,-619.5"/>
<polygon fill="none" stroke="#000000" points="467,-619.5 467,-654.5 722,-654.5 722,-619.5 467,-619.5"/>
<text text-anchor="start" x="473.8605" y="-632.3" font-family="Arial Bold" font-size="18.00" fill="#000000">public.article_tags</text>
<text text-anchor="start" x="617.8857" y="-632.3" font-family="Arial" font-size="14.00" fill="#000000"> </text>
<text text-anchor="start" x="621.7763" y="-632.3" font-family="Arial" font-size="14.00" fill="#666666">[BASE TABLE]</text>
<polygon fill="none" stroke="#000000" points="467,-589.5 467,-619.5 722,-619.5 722,-589.5 467,-589.5"/>
<text text-anchor="start" x="474" y="-600.9" font-family="Arial" font-size="14.00" fill="#000000">id </text>
<text text-anchor="start" x="488.7798" y="-600.9" font-family="Arial" font-size="14.00" fill="#666666">[uuid]</text>
<polygon fill="none" stroke="#000000" points="467,-559.5 467,-589.5 722,-589.5 722,-559.5 467,-559.5"/>
<text text-anchor="start" x="474" y="-570.9" font-family="Arial" font-size="14.00" fill="#000000">tag </text>
<text text-anchor="start" x="497.3464" y="-570.9" font-family="Arial" font-size="14.00" fill="#666666">[varchar]</text>
<polygon fill="none" stroke="#000000" points="467,-529.5 467,-559.5 722,-559.5 722,-529.5 467,-529.5"/>
<text text-anchor="start" x="474" y="-540.9" font-family="Arial" font-size="14.00" fill="#000000">created_at </text>
<text text-anchor="start" x="544.028" y="-540.9" font-family="Arial" font-size="14.00" fill="#666666">[timestamp with time zone]</text>
<polygon fill="none" stroke="#000000" points="467,-499.5 467,-529.5 722,-529.5 722,-499.5 467,-499.5"/>
<text text-anchor="start" x="474" y="-510.9" font-family="Arial" font-size="14.00" fill="#000000">updated_at </text>
<text text-anchor="start" x="547.9326" y="-510.9" font-family="Arial" font-size="14.00" fill="#666666">[timestamp with time zone]</text>
<polygon fill="none" stroke="#000000" points="467,-469.5 467,-499.5 722,-499.5 722,-469.5 467,-469.5"/>
<text text-anchor="start" x="474" y="-480.9" font-family="Arial" font-size="14.00" fill="#000000">article_id </text>
<text text-anchor="start" x="533.892" y="-480.9" font-family="Arial" font-size="14.00" fill="#666666">[uuid]</text>
</g>
<!-- public.article_tags&#45;&gt;public.articles -->
<g id="edge2" class="edge">
<title>public.article_tags:article_id&#45;&gt;public.articles:id</title>
<path fill="none" stroke="#000000" d="M457.214,-481.7075C446.5681,-473.1022 458.5459,-446.4013 467,-427 484.2106,-387.5033 520.7894,-400.4967 538,-361 554.6002,-322.9041 579.5556,-267.5 538,-267.5"/>
<polygon fill="#000000" stroke="#000000" points="457.3839,-481.7559 465.7651,-488.8273 462.1919,-483.1279 467,-484.5 467,-484.5 467,-484.5 462.1919,-483.1279 468.2349,-480.1727 457.3839,-481.7559 457.3839,-481.7559"/>
<text text-anchor="start" x="473.8365" y="-494.5" font-family="Arial" font-size="10.00" fill="#000000">FOREIGN KEY (article_id) REFERENCES articles(id) ON DELETE CASCADE</text>
</g>
<!-- public.users -->
<g id="node4" class="node">
<title>public.users</title>
<polygon fill="#efefef" stroke="transparent" points="826,-207.5 826,-242.5 1079,-242.5 1079,-207.5 826,-207.5"/>
<polygon fill="none" stroke="#000000" points="826,-207.5 826,-242.5 1079,-242.5 1079,-207.5 826,-207.5"/>
<text text-anchor="start" x="855.8662" y="-220.3" font-family="Arial Bold" font-size="18.00" fill="#000000">public.users</text>
<text text-anchor="start" x="951.88" y="-220.3" font-family="Arial" font-size="14.00" fill="#000000"> </text>
<text text-anchor="start" x="955.7706" y="-220.3" font-family="Arial" font-size="14.00" fill="#666666">[BASE TABLE]</text>
<polygon fill="none" stroke="#000000" points="826,-177.5 826,-207.5 1079,-207.5 1079,-177.5 826,-177.5"/>
<text text-anchor="start" x="833" y="-188.9" font-family="Arial" font-size="14.00" fill="#000000">id </text>
<text text-anchor="start" x="847.7798" y="-188.9" font-family="Arial" font-size="14.00" fill="#666666">[uuid]</text>
<polygon fill="none" stroke="#000000" points="826,-147.5 826,-177.5 1079,-177.5 1079,-147.5 826,-147.5"/>
<text text-anchor="start" x="833" y="-158.9" font-family="Arial" font-size="14.00" fill="#000000">created_at </text>
<text text-anchor="start" x="903.028" y="-158.9" font-family="Arial" font-size="14.00" fill="#666666">[timestamp with time zone]</text>
<polygon fill="none" stroke="#000000" points="826,-117.5 826,-147.5 1079,-147.5 1079,-117.5 826,-117.5"/>
<text text-anchor="start" x="832.6915" y="-128.9" font-family="Arial" font-size="14.00" fill="#000000">updated_at </text>
<text text-anchor="start" x="906.6241" y="-128.9" font-family="Arial" font-size="14.00" fill="#666666">[timestamp with time zone]</text>
</g>
<!-- public.auths -->
<g id="node5" class="node">
<title>public.auths</title>
<polygon fill="#efefef" stroke="transparent" points="826,-649.5 826,-684.5 1079,-684.5 1079,-649.5 826,-649.5"/>
<polygon fill="none" stroke="#000000" points="826,-649.5 826,-684.5 1079,-684.5 1079,-649.5 826,-649.5"/>
<text text-anchor="start" x="855.8581" y="-662.3" font-family="Arial Bold" font-size="18.00" fill="#000000">public.auths</text>
<text text-anchor="start" x="951.8881" y="-662.3" font-family="Arial" font-size="14.00" fill="#000000"> </text>
<text text-anchor="start" x="955.7787" y="-662.3" font-family="Arial" font-size="14.00" fill="#666666">[BASE TABLE]</text>
<polygon fill="none" stroke="#000000" points="826,-619.5 826,-649.5 1079,-649.5 1079,-619.5 826,-619.5"/>
<text text-anchor="start" x="833" y="-630.9" font-family="Arial" font-size="14.00" fill="#000000">id </text>
<text text-anchor="start" x="847.7798" y="-630.9" font-family="Arial" font-size="14.00" fill="#666666">[uuid]</text>
<polygon fill="none" stroke="#000000" points="826,-589.5 826,-619.5 1079,-619.5 1079,-589.5 826,-589.5"/>
<text text-anchor="start" x="833" y="-600.9" font-family="Arial" font-size="14.00" fill="#000000">login_id </text>
<text text-anchor="start" x="885.1234" y="-600.9" font-family="Arial" font-size="14.00" fill="#666666">[varchar]</text>
<polygon fill="none" stroke="#000000" points="826,-559.5 826,-589.5 1079,-589.5 1079,-559.5 826,-559.5"/>
<text text-anchor="start" x="833" y="-570.9" font-family="Arial" font-size="14.00" fill="#000000">email </text>
<text text-anchor="start" x="870.3296" y="-570.9" font-family="Arial" font-size="14.00" fill="#666666">[varchar]</text>
<polygon fill="none" stroke="#000000" points="826,-529.5 826,-559.5 1079,-559.5 1079,-529.5 826,-529.5"/>
<text text-anchor="start" x="833" y="-540.9" font-family="Arial" font-size="14.00" fill="#000000">password </text>
<text text-anchor="start" x="896.7882" y="-540.9" font-family="Arial" font-size="14.00" fill="#666666">[varchar]</text>
<polygon fill="none" stroke="#000000" points="826,-499.5 826,-529.5 1079,-529.5 1079,-499.5 826,-499.5"/>
<text text-anchor="start" x="833" y="-510.9" font-family="Arial" font-size="14.00" fill="#000000">created_at </text>
<text text-anchor="start" x="903.028" y="-510.9" font-family="Arial" font-size="14.00" fill="#666666">[timestamp with time zone]</text>
<polygon fill="none" stroke="#000000" points="826,-469.5 826,-499.5 1079,-499.5 1079,-469.5 826,-469.5"/>
<text text-anchor="start" x="832.6915" y="-480.9" font-family="Arial" font-size="14.00" fill="#000000">updated_at </text>
<text text-anchor="start" x="906.6241" y="-480.9" font-family="Arial" font-size="14.00" fill="#666666">[timestamp with time zone]</text>
<polygon fill="none" stroke="#000000" points="826,-439.5 826,-469.5 1079,-469.5 1079,-439.5 826,-439.5"/>
<text text-anchor="start" x="833" y="-450.9" font-family="Arial" font-size="14.00" fill="#000000">user_id </text>
<text text-anchor="start" x="882.7882" y="-450.9" font-family="Arial" font-size="14.00" fill="#666666">[uuid]</text>
</g>
<!-- public.auths&#45;&gt;public.users -->
<g id="edge3" class="edge">
<title>public.auths:user_id&#45;&gt;public.users:id</title>
<path fill="none" stroke="#000000" d="M952.5218,-429.1299C945.1554,-352.2895 854.7655,-365.8927 826,-286 811.9225,-246.9016 784.4444,-192.5 826,-192.5"/>
<polygon fill="#000000" stroke="#000000" points="952.5392,-429.5106 948.5048,-439.7074 952.7696,-434.5053 953,-439.5 953,-439.5 953,-439.5 952.7696,-434.5053 957.4952,-439.2926 952.5392,-429.5106 952.5392,-429.5106"/>
<text text-anchor="start" x="960.0535" y="-449.5" font-family="Arial" font-size="10.00" fill="#000000">FOREIGN KEY (user_id) REFERENCES users(id) ON DELETE CASCADE</text>
</g>
</g>
</svg>
