<?xml version="1.0" encoding="UTF-8" standalone="no"?>
<!DOCTYPE svg PUBLIC "-//W3C//DTD SVG 1.1//EN"
 "http://www.w3.org/Graphics/SVG/1.1/DTD/svg11.dtd">
<!-- Generated by graphviz version 2.40.1 (20161225.0304)
 -->
<!-- Title: postgres Pages: 1 -->
<svg width="1142pt" height="736pt"
 viewBox="0.00 0.00 1141.50 736.00" xmlns="http://www.w3.org/2000/svg" xmlns:xlink="http://www.w3.org/1999/xlink">
<g id="graph0" class="graph" transform="scale(1 1) rotate(0) translate(4 732)">
<title>postgres</title>
<polygon fill="#ffffff" stroke="transparent" points="-4,4 -4,-732 1137.5,-732 1137.5,4 -4,4"/>
<!-- public.users -->
<g id="node1" class="node">
<title>public.users</title>
<polygon fill="#efefef" stroke="transparent" points="43.5,-207.5 43.5,-242.5 296.5,-242.5 296.5,-207.5 43.5,-207.5"/>
<polygon fill="none" stroke="#000000" points="43.5,-207.5 43.5,-242.5 296.5,-242.5 296.5,-207.5 43.5,-207.5"/>
<text text-anchor="start" x="73.3662" y="-220.3" font-family="Arial Bold" font-size="18.00" fill="#000000">public.users</text>
<text text-anchor="start" x="169.38" y="-220.3" font-family="Arial" font-size="14.00" fill="#000000"> </text>
<text text-anchor="start" x="173.2706" y="-220.3" font-family="Arial" font-size="14.00" fill="#666666">[BASE TABLE]</text>
<polygon fill="none" stroke="#000000" points="43.5,-177.5 43.5,-207.5 296.5,-207.5 296.5,-177.5 43.5,-177.5"/>
<text text-anchor="start" x="50.5" y="-188.9" font-family="Arial" font-size="14.00" fill="#000000">id </text>
<text text-anchor="start" x="65.2798" y="-188.9" font-family="Arial" font-size="14.00" fill="#666666">[uuid]</text>
<polygon fill="none" stroke="#000000" points="43.5,-147.5 43.5,-177.5 296.5,-177.5 296.5,-147.5 43.5,-147.5"/>
<text text-anchor="start" x="50.5" y="-158.9" font-family="Arial" font-size="14.00" fill="#000000">created_at </text>
<text text-anchor="start" x="120.528" y="-158.9" font-family="Arial" font-size="14.00" fill="#666666">[timestamp with time zone]</text>
<polygon fill="none" stroke="#000000" points="43.5,-117.5 43.5,-147.5 296.5,-147.5 296.5,-117.5 43.5,-117.5"/>
<text text-anchor="start" x="50.1915" y="-128.9" font-family="Arial" font-size="14.00" fill="#000000">updated_at </text>
<text text-anchor="start" x="124.1241" y="-128.9" font-family="Arial" font-size="14.00" fill="#666666">[timestamp with time zone]</text>
</g>
<!-- public.auths -->
<g id="node2" class="node">
<title>public.auths</title>
<polygon fill="#efefef" stroke="transparent" points="43.5,-649.5 43.5,-684.5 296.5,-684.5 296.5,-649.5 43.5,-649.5"/>
<polygon fill="none" stroke="#000000" points="43.5,-649.5 43.5,-684.5 296.5,-684.5 296.5,-649.5 43.5,-649.5"/>
<text text-anchor="start" x="73.3581" y="-662.3" font-family="Arial Bold" font-size="18.00" fill="#000000">public.auths</text>
<text text-anchor="start" x="169.3881" y="-662.3" font-family="Arial" font-size="14.00" fill="#000000"> </text>
<text text-anchor="start" x="173.2787" y="-662.3" font-family="Arial" font-size="14.00" fill="#666666">[BASE TABLE]</text>
<polygon fill="none" stroke="#000000" points="43.5,-619.5 43.5,-649.5 296.5,-649.5 296.5,-619.5 43.5,-619.5"/>
<text text-anchor="start" x="50.5" y="-630.9" font-family="Arial" font-size="14.00" fill="#000000">id </text>
<text text-anchor="start" x="65.2798" y="-630.9" font-family="Arial" font-size="14.00" fill="#666666">[uuid]</text>
<polygon fill="none" stroke="#000000" points="43.5,-589.5 43.5,-619.5 296.5,-619.5 296.5,-589.5 43.5,-589.5"/>
<text text-anchor="start" x="50.5" y="-600.9" font-family="Arial" font-size="14.00" fill="#000000">login_id </text>
<text text-anchor="start" x="102.6234" y="-600.9" font-family="Arial" font-size="14.00" fill="#666666">[varchar]</text>
<polygon fill="none" stroke="#000000" points="43.5,-559.5 43.5,-589.5 296.5,-589.5 296.5,-559.5 43.5,-559.5"/>
<text text-anchor="start" x="50.5" y="-570.9" font-family="Arial" font-size="14.00" fill="#000000">email </text>
<text text-anchor="start" x="87.8296" y="-570.9" font-family="Arial" font-size="14.00" fill="#666666">[varchar]</text>
<polygon fill="none" stroke="#000000" points="43.5,-529.5 43.5,-559.5 296.5,-559.5 296.5,-529.5 43.5,-529.5"/>
<text text-anchor="start" x="50.5" y="-540.9" font-family="Arial" font-size="14.00" fill="#000000">password </text>
<text text-anchor="start" x="114.2882" y="-540.9" font-family="Arial" font-size="14.00" fill="#666666">[varchar]</text>
<polygon fill="none" stroke="#000000" points="43.5,-499.5 43.5,-529.5 296.5,-529.5 296.5,-499.5 43.5,-499.5"/>
<text text-anchor="start" x="50.5" y="-510.9" font-family="Arial" font-size="14.00" fill="#000000">created_at </text>
<text text-anchor="start" x="120.528" y="-510.9" font-family="Arial" font-size="14.00" fill="#666666">[timestamp with time zone]</text>
<polygon fill="none" stroke="#000000" points="43.5,-469.5 43.5,-499.5 296.5,-499.5 296.5,-469.5 43.5,-469.5"/>
<text text-anchor="start" x="50.1915" y="-480.9" font-family="Arial" font-size="14.00" fill="#000000">updated_at </text>
<text text-anchor="start" x="124.1241" y="-480.9" font-family="Arial" font-size="14.00" fill="#666666">[timestamp with time zone]</text>
<polygon fill="none" stroke="#000000" points="43.5,-439.5 43.5,-469.5 296.5,-469.5 296.5,-439.5 43.5,-439.5"/>
<text text-anchor="start" x="50.5" y="-450.9" font-family="Arial" font-size="14.00" fill="#000000">user_id </text>
<text text-anchor="start" x="100.2882" y="-450.9" font-family="Arial" font-size="14.00" fill="#666666">[uuid]</text>
</g>
<!-- public.auths&#45;&gt;public.users -->
<g id="edge1" class="edge">
<title>public.auths:user_id&#45;&gt;public.users:id</title>
<path fill="none" stroke="#000000" d="M170.0218,-429.1299C162.6554,-352.2895 72.2655,-365.8927 43.5,-286 29.4225,-246.9016 1.9444,-192.5 43.5,-192.5"/>
<polygon fill="#000000" stroke="#000000" points="170.0392,-429.5106 166.0048,-439.7074 170.2696,-434.5053 170.5,-439.5 170.5,-439.5 170.5,-439.5 170.2696,-434.5053 174.9952,-439.2926 170.0392,-429.5106 170.0392,-429.5106"/>
<text text-anchor="start" x="177.5535" y="-423.5" font-family="Arial" font-size="10.00" fill="#000000">FOREIGN KEY (user_id) REFERENCES users(id) ON DELETE CASCADE</text>
</g>
<!-- public.articles -->
<g id="node3" class="node">
<title>public.articles</title>
<polygon fill="#efefef" stroke="transparent" points="589.5,-282.5 589.5,-317.5 842.5,-317.5 842.5,-282.5 589.5,-282.5"/>
<polygon fill="none" stroke="#000000" points="589.5,-282.5 589.5,-317.5 842.5,-317.5 842.5,-282.5 589.5,-282.5"/>
<text text-anchor="start" x="612.8709" y="-295.3" font-family="Arial Bold" font-size="18.00" fill="#000000">public.articles</text>
<text text-anchor="start" x="721.8753" y="-295.3" font-family="Arial" font-size="14.00" fill="#000000"> </text>
<text text-anchor="start" x="725.7659" y="-295.3" font-family="Arial" font-size="14.00" fill="#666666">[BASE TABLE]</text>
<polygon fill="none" stroke="#000000" points="589.5,-252.5 589.5,-282.5 842.5,-282.5 842.5,-252.5 589.5,-252.5"/>
<text text-anchor="start" x="596.5" y="-263.9" font-family="Arial" font-size="14.00" fill="#000000">id </text>
<text text-anchor="start" x="611.2798" y="-263.9" font-family="Arial" font-size="14.00" fill="#666666">[uuid]</text>
<polygon fill="none" stroke="#000000" points="589.5,-222.5 589.5,-252.5 842.5,-252.5 842.5,-222.5 589.5,-222.5"/>
<text text-anchor="start" x="596.5" y="-233.9" font-family="Arial" font-size="14.00" fill="#000000">title </text>
<text text-anchor="start" x="622.1676" y="-233.9" font-family="Arial" font-size="14.00" fill="#666666">[varchar]</text>
<polygon fill="none" stroke="#000000" points="589.5,-192.5 589.5,-222.5 842.5,-222.5 842.5,-192.5 589.5,-192.5"/>
<text text-anchor="start" x="596.5" y="-203.9" font-family="Arial" font-size="14.00" fill="#000000">url </text>
<text text-anchor="start" x="615.9404" y="-203.9" font-family="Arial" font-size="14.00" fill="#666666">[varchar]</text>
<polygon fill="none" stroke="#000000" points="589.5,-162.5 589.5,-192.5 842.5,-192.5 842.5,-162.5 589.5,-162.5"/>
<text text-anchor="start" x="596.5" y="-173.9" font-family="Arial" font-size="14.00" fill="#000000">description </text>
<text text-anchor="start" x="668.068" y="-173.9" font-family="Arial" font-size="14.00" fill="#666666">[varchar]</text>
<polygon fill="none" stroke="#000000" points="589.5,-132.5 589.5,-162.5 842.5,-162.5 842.5,-132.5 589.5,-132.5"/>
<text text-anchor="start" x="596.5" y="-143.9" font-family="Arial" font-size="14.00" fill="#000000">thumbnail </text>
<text text-anchor="start" x="661.068" y="-143.9" font-family="Arial" font-size="14.00" fill="#666666">[varchar]</text>
<polygon fill="none" stroke="#000000" points="589.5,-102.5 589.5,-132.5 842.5,-132.5 842.5,-102.5 589.5,-102.5"/>
<text text-anchor="start" x="596.5" y="-113.9" font-family="Arial" font-size="14.00" fill="#000000">created_at </text>
<text text-anchor="start" x="666.528" y="-113.9" font-family="Arial" font-size="14.00" fill="#666666">[timestamp with time zone]</text>
<polygon fill="none" stroke="#000000" points="589.5,-72.5 589.5,-102.5 842.5,-102.5 842.5,-72.5 589.5,-72.5"/>
<text text-anchor="start" x="596.1915" y="-83.9" font-family="Arial" font-size="14.00" fill="#000000">updated_at </text>
<text text-anchor="start" x="670.1241" y="-83.9" font-family="Arial" font-size="14.00" fill="#666666">[timestamp with time zone]</text>
<polygon fill="none" stroke="#000000" points="589.5,-42.5 589.5,-72.5 842.5,-72.5 842.5,-42.5 589.5,-42.5"/>
<text text-anchor="start" x="596.5" y="-53.9" font-family="Arial" font-size="14.00" fill="#000000">deleted_at </text>
<text text-anchor="start" x="665.7566" y="-53.9" font-family="Arial" font-size="14.00" fill="#666666">[timestamp with time zone]</text>
</g>
<!-- public.read_articles -->
<g id="node4" class="node">
<title>public.read_articles</title>
<polygon fill="#efefef" stroke="transparent" points="400.5,-604.5 400.5,-639.5 666.5,-639.5 666.5,-604.5 400.5,-604.5"/>
<polygon fill="none" stroke="#000000" points="400.5,-604.5 400.5,-639.5 666.5,-639.5 666.5,-604.5 400.5,-604.5"/>
<text text-anchor="start" x="407.3624" y="-617.3" font-family="Arial Bold" font-size="18.00" fill="#000000">public.read_articles</text>
<text text-anchor="start" x="562.3838" y="-617.3" font-family="Arial" font-size="14.00" fill="#000000"> </text>
<text text-anchor="start" x="566.2744" y="-617.3" font-family="Arial" font-size="14.00" fill="#666666">[BASE TABLE]</text>
<polygon fill="none" stroke="#000000" points="400.5,-574.5 400.5,-604.5 666.5,-604.5 666.5,-574.5 400.5,-574.5"/>
<text text-anchor="start" x="407.5" y="-585.9" font-family="Arial" font-size="14.00" fill="#000000">id </text>
<text text-anchor="start" x="422.2798" y="-585.9" font-family="Arial" font-size="14.00" fill="#666666">[uuid]</text>
<polygon fill="none" stroke="#000000" points="400.5,-544.5 400.5,-574.5 666.5,-574.5 666.5,-544.5 400.5,-544.5"/>
<text text-anchor="start" x="407.5" y="-555.9" font-family="Arial" font-size="14.00" fill="#000000">user_id </text>
<text text-anchor="start" x="457.2882" y="-555.9" font-family="Arial" font-size="14.00" fill="#666666">[uuid]</text>
<polygon fill="none" stroke="#000000" points="400.5,-514.5 400.5,-544.5 666.5,-544.5 666.5,-514.5 400.5,-514.5"/>
<text text-anchor="start" x="407.5" y="-525.9" font-family="Arial" font-size="14.00" fill="#000000">read_at </text>
<text text-anchor="start" x="458.8548" y="-525.9" font-family="Arial" font-size="14.00" fill="#666666">[timestamp with time zone]</text>
<polygon fill="none" stroke="#000000" points="400.5,-484.5 400.5,-514.5 666.5,-514.5 666.5,-484.5 400.5,-484.5"/>
<text text-anchor="start" x="407.5" y="-495.9" font-family="Arial" font-size="14.00" fill="#000000">article_id </text>
<text text-anchor="start" x="467.392" y="-495.9" font-family="Arial" font-size="14.00" fill="#666666">[uuid]</text>
</g>
<!-- public.read_articles&#45;&gt;public.articles -->
<g id="edge2" class="edge">
<title>public.read_articles:article_id&#45;&gt;public.articles:id</title>
<path fill="none" stroke="#000000" d="M676.2325,-496.7298C686.7245,-488.1888 674.3507,-461.6532 666.5,-442 648.0742,-395.8735 607.9258,-407.1265 589.5,-361 574.0845,-322.4095 547.9444,-267.5 589.5,-267.5"/>
<polygon fill="#000000" stroke="#000000" points="676.118,-496.7623 665.268,-495.1719 671.309,-498.1312 666.5,-499.5 666.5,-499.5 666.5,-499.5 671.309,-498.1312 667.732,-503.8281 676.118,-496.7623 676.118,-496.7623"/>
<text text-anchor="start" x="673.3365" y="-509.5" font-family="Arial" font-size="10.00" fill="#000000">FOREIGN KEY (article_id) REFERENCES articles(id) ON DELETE CASCADE</text>
</g>
<!-- public.article_tags -->
<g id="node5" class="node">
<title>public.article_tags</title>
<polygon fill="#efefef" stroke="transparent" points="771.5,-619.5 771.5,-654.5 1026.5,-654.5 1026.5,-619.5 771.5,-619.5"/>
<polygon fill="none" stroke="#000000" points="771.5,-619.5 771.5,-654.5 1026.5,-654.5 1026.5,-619.5 771.5,-619.5"/>
<text text-anchor="start" x="778.3605" y="-632.3" font-family="Arial Bold" font-size="18.00" fill="#000000">public.article_tags</text>
<text text-anchor="start" x="922.3857" y="-632.3" font-family="Arial" font-size="14.00" fill="#000000"> </text>
<text text-anchor="start" x="926.2763" y="-632.3" font-family="Arial" font-size="14.00" fill="#666666">[BASE TABLE]</text>
<polygon fill="none" stroke="#000000" points="771.5,-589.5 771.5,-619.5 1026.5,-619.5 1026.5,-589.5 771.5,-589.5"/>
<text text-anchor="start" x="778.5" y="-600.9" font-family="Arial" font-size="14.00" fill="#000000">id </text>
<text text-anchor="start" x="793.2798" y="-600.9" font-family="Arial" font-size="14.00" fill="#666666">[uuid]</text>
<polygon fill="none" stroke="#000000" points="771.5,-559.5 771.5,-589.5 1026.5,-589.5 1026.5,-559.5 771.5,-559.5"/>
<text text-anchor="start" x="778.5" y="-570.9" font-family="Arial" font-size="14.00" fill="#000000">tag </text>
<text text-anchor="start" x="801.8464" y="-570.9" font-family="Arial" font-size="14.00" fill="#666666">[varchar]</text>
<polygon fill="none" stroke="#000000" points="771.5,-529.5 771.5,-559.5 1026.5,-559.5 1026.5,-529.5 771.5,-529.5"/>
<text text-anchor="start" x="778.5" y="-540.9" font-family="Arial" font-size="14.00" fill="#000000">created_at </text>
<text text-anchor="start" x="848.528" y="-540.9" font-family="Arial" font-size="14.00" fill="#666666">[timestamp with time zone]</text>
<polygon fill="none" stroke="#000000" points="771.5,-499.5 771.5,-529.5 1026.5,-529.5 1026.5,-499.5 771.5,-499.5"/>
<text text-anchor="start" x="778.5" y="-510.9" font-family="Arial" font-size="14.00" fill="#000000">updated_at </text>
<text text-anchor="start" x="852.4326" y="-510.9" font-family="Arial" font-size="14.00" fill="#666666">[timestamp with time zone]</text>
<polygon fill="none" stroke="#000000" points="771.5,-469.5 771.5,-499.5 1026.5,-499.5 1026.5,-469.5 771.5,-469.5"/>
<text text-anchor="start" x="778.5" y="-480.9" font-family="Arial" font-size="14.00" fill="#000000">article_id </text>
<text text-anchor="start" x="838.392" y="-480.9" font-family="Arial" font-size="14.00" fill="#666666">[uuid]</text>
</g>
<!-- public.article_tags&#45;&gt;public.articles -->
<g id="edge3" class="edge">
<title>public.article_tags:article_id&#45;&gt;public.articles:id</title>
<path fill="none" stroke="#000000" d="M761.714,-481.7075C751.0681,-473.1022 763.0459,-446.4013 771.5,-427 788.7106,-387.5033 825.2894,-400.4967 842.5,-361 859.1002,-322.9041 884.0556,-267.5 842.5,-267.5"/>
<polygon fill="#000000" stroke="#000000" points="761.8839,-481.7559 770.2651,-488.8273 766.6919,-483.1279 771.5,-484.5 771.5,-484.5 771.5,-484.5 766.6919,-483.1279 772.7349,-480.1727 761.8839,-481.7559 761.8839,-481.7559"/>
<text text-anchor="start" x="778.3365" y="-468.5" font-family="Arial" font-size="10.00" fill="#000000">FOREIGN KEY (article_id) REFERENCES articles(id) ON DELETE CASCADE</text>
</g>
</g>
</svg>
