<?xml version="1.0" encoding="UTF-8" standalone="no"?>
<!DOCTYPE svg PUBLIC "-//W3C//DTD SVG 1.1//EN"
 "http://www.w3.org/Graphics/SVG/1.1/DTD/svg11.dtd">
<!-- Generated by graphviz version 2.40.1 (20161225.0304)
 -->
<!-- Title: postgres Pages: 1 -->
<svg width="658pt" height="369pt"
 viewBox="0.00 0.00 658.00 369.00" xmlns="http://www.w3.org/2000/svg" xmlns:xlink="http://www.w3.org/1999/xlink">
<g id="graph0" class="graph" transform="scale(1 1) rotate(0) translate(4 365)">
<title>postgres</title>
<polygon fill="#ffffff" stroke="transparent" points="-4,4 -4,-365 654,-365 654,4 -4,4"/>
<!-- public.articles -->
<g id="node1" class="node">
<title>public.articles</title>
<polygon fill="#efefef" stroke="transparent" points="43.5,-282.5 43.5,-317.5 296.5,-317.5 296.5,-282.5 43.5,-282.5"/>
<polygon fill="none" stroke="#000000" points="43.5,-282.5 43.5,-317.5 296.5,-317.5 296.5,-282.5 43.5,-282.5"/>
<text text-anchor="start" x="66.8709" y="-295.3" font-family="Arial Bold" font-size="18.00" fill="#000000">public.articles</text>
<text text-anchor="start" x="175.8753" y="-295.3" font-family="Arial" font-size="14.00" fill="#000000"> </text>
<text text-anchor="start" x="179.7659" y="-295.3" font-family="Arial" font-size="14.00" fill="#666666">[BASE TABLE]</text>
<polygon fill="none" stroke="#000000" points="43.5,-252.5 43.5,-282.5 296.5,-282.5 296.5,-252.5 43.5,-252.5"/>
<text text-anchor="start" x="50.5" y="-263.9" font-family="Arial" font-size="14.00" fill="#000000">id </text>
<text text-anchor="start" x="65.2798" y="-263.9" font-family="Arial" font-size="14.00" fill="#666666">[uuid]</text>
<polygon fill="none" stroke="#000000" points="43.5,-222.5 43.5,-252.5 296.5,-252.5 296.5,-222.5 43.5,-222.5"/>
<text text-anchor="start" x="50.5" y="-233.9" font-family="Arial" font-size="14.00" fill="#000000">title </text>
<text text-anchor="start" x="76.1676" y="-233.9" font-family="Arial" font-size="14.00" fill="#666666">[varchar]</text>
<polygon fill="none" stroke="#000000" points="43.5,-192.5 43.5,-222.5 296.5,-222.5 296.5,-192.5 43.5,-192.5"/>
<text text-anchor="start" x="50.5" y="-203.9" font-family="Arial" font-size="14.00" fill="#000000">description </text>
<text text-anchor="start" x="122.068" y="-203.9" font-family="Arial" font-size="14.00" fill="#666666">[varchar]</text>
<polygon fill="none" stroke="#000000" points="43.5,-162.5 43.5,-192.5 296.5,-192.5 296.5,-162.5 43.5,-162.5"/>
<text text-anchor="start" x="50.5" y="-173.9" font-family="Arial" font-size="14.00" fill="#000000">url </text>
<text text-anchor="start" x="69.9404" y="-173.9" font-family="Arial" font-size="14.00" fill="#666666">[varchar]</text>
<polygon fill="none" stroke="#000000" points="43.5,-132.5 43.5,-162.5 296.5,-162.5 296.5,-132.5 43.5,-132.5"/>
<text text-anchor="start" x="50.5" y="-143.9" font-family="Arial" font-size="14.00" fill="#000000">image_url </text>
<text text-anchor="start" x="115.838" y="-143.9" font-family="Arial" font-size="14.00" fill="#666666">[varchar]</text>
<polygon fill="none" stroke="#000000" points="43.5,-102.5 43.5,-132.5 296.5,-132.5 296.5,-102.5 43.5,-102.5"/>
<text text-anchor="start" x="50.5" y="-113.9" font-family="Arial" font-size="14.00" fill="#000000">created_at </text>
<text text-anchor="start" x="120.528" y="-113.9" font-family="Arial" font-size="14.00" fill="#666666">[timestamp with time zone]</text>
<polygon fill="none" stroke="#000000" points="43.5,-72.5 43.5,-102.5 296.5,-102.5 296.5,-72.5 43.5,-72.5"/>
<text text-anchor="start" x="50.1915" y="-83.9" font-family="Arial" font-size="14.00" fill="#000000">updated_at </text>
<text text-anchor="start" x="124.1241" y="-83.9" font-family="Arial" font-size="14.00" fill="#666666">[timestamp with time zone]</text>
<polygon fill="none" stroke="#000000" points="43.5,-42.5 43.5,-72.5 296.5,-72.5 296.5,-42.5 43.5,-42.5"/>
<text text-anchor="start" x="50.5" y="-53.9" font-family="Arial" font-size="14.00" fill="#000000">deleted_at </text>
<text text-anchor="start" x="119.7566" y="-53.9" font-family="Arial" font-size="14.00" fill="#666666">[timestamp with time zone]</text>
</g>
<!-- public.auths -->
<g id="node2" class="node">
<title>public.auths</title>
<polygon fill="#efefef" stroke="transparent" points="400.5,-222.5 400.5,-257.5 607.5,-257.5 607.5,-222.5 400.5,-222.5"/>
<polygon fill="none" stroke="#000000" points="400.5,-222.5 400.5,-257.5 607.5,-257.5 607.5,-222.5 400.5,-222.5"/>
<text text-anchor="start" x="407.3581" y="-235.3" font-family="Arial Bold" font-size="18.00" fill="#000000">public.auths</text>
<text text-anchor="start" x="503.3881" y="-235.3" font-family="Arial" font-size="14.00" fill="#000000"> </text>
<text text-anchor="start" x="507.2787" y="-235.3" font-family="Arial" font-size="14.00" fill="#666666">[BASE TABLE]</text>
<polygon fill="none" stroke="#000000" points="400.5,-192.5 400.5,-222.5 607.5,-222.5 607.5,-192.5 400.5,-192.5"/>
<text text-anchor="start" x="407.5" y="-203.9" font-family="Arial" font-size="14.00" fill="#000000">id </text>
<text text-anchor="start" x="422.2798" y="-203.9" font-family="Arial" font-size="14.00" fill="#666666">[uuid]</text>
<polygon fill="none" stroke="#000000" points="400.5,-162.5 400.5,-192.5 607.5,-192.5 607.5,-162.5 400.5,-162.5"/>
<text text-anchor="start" x="407.5" y="-173.9" font-family="Arial" font-size="14.00" fill="#000000">login_id </text>
<text text-anchor="start" x="459.6234" y="-173.9" font-family="Arial" font-size="14.00" fill="#666666">[varchar]</text>
<polygon fill="none" stroke="#000000" points="400.5,-132.5 400.5,-162.5 607.5,-162.5 607.5,-132.5 400.5,-132.5"/>
<text text-anchor="start" x="407.5" y="-143.9" font-family="Arial" font-size="14.00" fill="#000000">email </text>
<text text-anchor="start" x="444.8296" y="-143.9" font-family="Arial" font-size="14.00" fill="#666666">[varchar]</text>
<polygon fill="none" stroke="#000000" points="400.5,-102.5 400.5,-132.5 607.5,-132.5 607.5,-102.5 400.5,-102.5"/>
<text text-anchor="start" x="407.5" y="-113.9" font-family="Arial" font-size="14.00" fill="#000000">password </text>
<text text-anchor="start" x="471.2882" y="-113.9" font-family="Arial" font-size="14.00" fill="#666666">[varchar]</text>
</g>
</g>
</svg>
